<svg width="58" height="58" viewBox="0 0 58 58" fill="none" xmlns="http://www.w3.org/2000/svg">
<g clip-path="url(#clip0_631_16)">
<g style="mix-blend-mode:overlay">
<path d="M55.5028 40.7724C55.5028 40.7724 55.5091 40.7566 55.5123 40.7503C55.6291 40.4851 55.7428 40.2199 55.8533 39.9516C55.8533 39.9484 55.8564 39.9421 55.8596 39.9389C55.9701 39.6674 56.0774 39.3928 56.1784 39.1181C56.2921 38.815 56.3994 38.512 56.5036 38.2026C56.5573 38.0416 56.6109 37.8806 56.6614 37.7164C57.3181 35.6328 57.7443 33.445 57.9116 31.1878C57.9211 31.1246 57.9274 31.0615 57.9305 30.9984C57.9369 30.9163 57.9432 30.8374 57.9432 30.7553C57.9779 30.1744 57.9968 29.5904 57.9968 29.0032C57.9968 28.6464 57.9905 28.2897 57.9779 27.9361C57.9716 27.8004 57.9653 27.6646 57.9558 27.5288C57.9495 27.3899 57.9432 27.251 57.9337 27.1121V27.1027C57.8232 25.4042 57.5612 23.7499 57.1729 22.1462C56.8698 20.8992 56.491 19.6806 56.0332 18.4999C55.8501 18.0232 55.6512 17.5591 55.4428 17.0982C55.3481 16.8867 55.2534 16.6752 55.1556 16.4668C54.2937 16.5994 53.4918 16.9182 52.7941 17.3792C52.4627 17.597 52.1533 17.8496 51.8755 18.1274C51.1872 17.7201 50.4548 17.3792 49.6908 17.1108C49.4004 17.0066 49.1036 16.9182 48.8037 16.8362C48.7248 16.8141 48.649 16.7951 48.5701 16.7762C47.5914 16.5299 46.5686 16.4005 45.511 16.4005C45.3247 16.4005 45.1385 16.4037 44.9522 16.4131C44.7659 16.4226 44.5828 16.4352 44.3997 16.451C44.3587 16.451 44.3145 16.4573 44.2735 16.4605C44.1061 16.2269 43.9325 15.9964 43.7557 15.7691C43.2222 15.0904 42.6445 14.4495 42.0257 13.8528C41.7763 13.9507 41.5364 14.0643 41.3059 14.1938C40.6335 14.5695 40.0431 15.0777 39.5664 15.6744C39.3359 15.9648 39.1339 16.2742 38.9603 16.6057C38.8782 16.7636 38.7993 16.9246 38.7298 17.0919C38.6288 17.3381 38.5404 17.5938 38.4741 17.8527C38.4046 18.1147 38.3541 18.3831 38.3226 18.6577C37.7796 19.0366 37.2681 19.4596 36.7914 19.9174C36.3147 20.3751 35.8759 20.8739 35.4781 21.4012C35.2792 21.6663 35.0898 21.9378 34.9099 22.2188C34.8215 22.3577 34.7331 22.4998 34.651 22.645C34.2311 23.3648 33.8838 24.1288 33.6123 24.9307C33.5555 25.2495 33.464 25.5526 33.344 25.8367C33.303 25.9314 33.2588 26.0261 33.2114 26.1208C33.1925 26.1587 33.1704 26.1934 33.1514 26.2282C33.123 26.2818 33.0914 26.3387 33.0599 26.3923C33.0251 26.4492 32.9873 26.5028 32.9525 26.5565C32.9304 26.5881 32.9115 26.6196 32.8926 26.6512C32.8515 26.708 32.8073 26.7649 32.7631 26.8217C32.7442 26.8469 32.7252 26.8722 32.7063 26.8975C32.6558 26.9606 32.599 27.0206 32.5453 27.0806C32.5327 27.0963 32.5169 27.1121 32.5042 27.1279C32.4411 27.1942 32.3748 27.2574 32.3054 27.3205C32.299 27.3268 32.2896 27.3363 32.2833 27.3426C32.2106 27.4089 32.138 27.4689 32.0623 27.5288C32.056 27.532 32.0528 27.5383 32.0465 27.5415C31.3204 28.1129 30.408 28.4538 29.4136 28.4602C29.4072 28.4602 29.3978 28.4602 29.3915 28.4602C29.3851 28.4602 29.382 28.4602 29.3757 28.4602C29.2589 28.4602 29.1452 28.457 29.0347 28.4444C29.041 28.5328 29.0537 28.6212 29.06 28.7127C29.1452 29.6945 29.3252 30.6448 29.5998 31.5572C29.644 31.6992 29.6945 31.8413 29.7419 31.9833C29.7766 32.0875 29.8082 32.1949 29.8461 32.2959C29.9092 32.4664 29.9787 32.6368 30.0481 32.8042C30.0765 32.8736 30.1018 32.9462 30.1334 33.0157C30.3291 33.4703 30.5469 33.9091 30.7868 34.3353C30.7963 34.3542 30.8058 34.3732 30.8153 34.3921C30.8153 34.3921 30.8089 34.3921 30.8058 34.3921C30.5974 34.3227 30.3859 34.2595 30.1712 34.1995C30.1586 34.1964 30.146 34.1901 30.1334 34.1869C30.0702 34.168 30.0071 34.1553 29.9439 34.1364C29.805 34.0985 29.663 34.0606 29.5241 34.0259C29.4956 34.0196 29.4704 34.0101 29.442 34.0038C29.3725 33.988 29.3031 33.9754 29.2368 33.9596C29.1136 33.9312 28.9905 33.9028 28.8674 33.8775C28.8232 33.8681 28.7822 33.8586 28.7411 33.8491C28.678 33.8365 28.6117 33.827 28.5486 33.8144C28.4349 33.7923 28.3212 33.7734 28.2076 33.7544C28.1476 33.7449 28.0908 33.7323 28.0308 33.7228C27.974 33.7134 27.9172 33.7071 27.8635 33.7007C27.7561 33.685 27.6488 33.6692 27.5415 33.6565C27.4657 33.6471 27.3868 33.6344 27.311 33.625C27.2668 33.6187 27.2195 33.6155 27.1753 33.6123C27.0742 33.5997 26.9732 33.5934 26.8722 33.5808C26.7428 33.5681 26.6133 33.5555 26.4807 33.5461C26.3892 33.5397 26.2976 33.5366 26.2092 33.5303C26.0893 33.524 25.9693 33.5145 25.8493 33.5082C25.8493 33.5082 25.8493 33.5082 25.8462 33.5082C25.8272 33.5082 25.8083 33.5082 25.7894 33.5082C25.562 33.4987 25.3316 33.4955 25.1011 33.4955C21.3633 33.4955 17.8874 34.61 14.983 36.5199C14.7305 36.6872 14.4811 36.8577 14.238 37.0377C14.1275 37.1198 14.0138 37.2018 13.9033 37.2839C13.4898 37.5996 13.0857 37.9342 12.7005 38.2847C12.1039 37.3912 11.583 36.4442 11.141 35.4529C11.0715 35.3013 11.0052 35.1466 10.9421 34.9919C10.8 34.651 10.6674 34.3069 10.5443 33.9596C10.4685 33.7386 10.3959 33.5176 10.3265 33.2935C9.774 31.5035 9.47725 29.603 9.47725 27.633C9.47725 21.8242 12.0628 16.6215 16.1385 13.1015C16.8614 12.4795 17.6286 11.9081 18.4399 11.3967C18.6451 11.2673 18.8503 11.1441 19.0618 11.021C19.3523 10.8537 19.649 10.6927 19.9489 10.538C20.1889 10.4149 20.4288 10.2981 20.675 10.1876C22.4872 9.35728 24.4476 8.79534 26.5091 8.56488C26.8533 8.527 27.2005 8.49543 27.5509 8.47649C27.5636 8.47649 27.5762 8.47649 27.592 8.47649C27.9519 8.45439 28.3118 8.44492 28.678 8.44492C29.483 8.44492 30.2754 8.49543 31.0552 8.59014C31.6392 8.66275 32.2138 8.76061 32.7821 8.88374C32.9715 8.92478 33.1577 8.96898 33.344 9.01633C33.565 9.07 33.786 9.12998 34.0038 9.18996C34.2564 9.23732 34.5152 9.26257 34.7836 9.26257C35.9674 9.26257 37.0408 8.78271 37.8206 8.0061C38.5972 7.22948 39.0771 6.15611 39.0771 4.97224C39.0771 3.66841 38.4962 2.50348 37.5807 1.71424C37.2366 1.42064 36.8482 1.17755 36.4252 1.00076C36.321 0.956564 36.2169 0.918681 36.1064 0.883954H36.1032C35.9075 0.836599 35.7117 0.789245 35.516 0.74189C35.5128 0.738733 35.5065 0.738733 35.5002 0.738733C33.6597 0.312541 31.7687 0.0662965 29.8303 0.0126279C29.5525 0.00631396 29.2747 0 28.9968 0C28.6117 0 28.2265 0.00947093 27.8445 0.0252558C27.7814 0.0252558 27.7151 0.0284128 27.652 0.0315698C27.2858 0.0473547 26.9227 0.0726105 26.5597 0.101023C26.4902 0.107337 26.4207 0.113651 26.3513 0.119965C25.9819 0.154692 25.6157 0.192576 25.2527 0.23993C25.2179 0.243087 25.1864 0.249401 25.1516 0.252558C24.9622 0.277814 24.7696 0.30307 24.5802 0.331483C24.4192 0.356739 24.2582 0.385151 24.0972 0.410407C24.0499 0.419878 24.0025 0.426192 23.9551 0.432506C23.5984 0.495646 23.2448 0.565099 22.8912 0.640867C22.8249 0.656651 22.7587 0.669279 22.6924 0.685064C22.3419 0.763989 21.9915 0.84607 21.6474 0.937623C21.6 0.95025 21.5527 0.962878 21.5085 0.975506C21.1612 1.06706 20.8171 1.16492 20.473 1.27226C20.4541 1.27858 20.4351 1.28489 20.4162 1.28805C20.0658 1.39538 19.7216 1.51219 19.3775 1.63216C19.3207 1.6511 19.267 1.67004 19.2102 1.69214C18.8756 1.81211 18.5409 1.93838 18.2126 2.07098C18.1621 2.08992 18.1147 2.11202 18.0642 2.13096C17.376 2.41193 16.7004 2.71816 16.0406 3.04964C16.0027 3.06858 15.9648 3.08752 15.927 3.10647C15.6049 3.27063 15.2861 3.43795 14.9735 3.61158C14.9293 3.63684 14.8883 3.65894 14.8441 3.68419C14.5253 3.86414 14.2064 4.04725 13.8939 4.23982C13.8812 4.24614 13.8718 4.25561 13.8591 4.26192C13.5371 4.45765 13.2214 4.66286 12.9089 4.87122C12.8963 4.88069 12.8836 4.887 12.871 4.89647C12.5616 5.10168 12.2585 5.31635 11.9618 5.53418C11.9302 5.55628 11.8987 5.58154 11.8639 5.60364C11.5672 5.82147 11.2704 6.04561 10.9831 6.27607C10.9673 6.2887 10.9516 6.30133 10.9389 6.31396C10.3423 6.79066 9.76138 7.28946 9.20575 7.81352C9.18996 7.82931 9.17102 7.84509 9.15524 7.86088C8.88058 8.11975 8.60908 8.38178 8.34389 8.65328C8.33126 8.6659 8.31864 8.68169 8.30285 8.69432C7.48519 9.52776 6.71805 10.4086 6.00457 11.3367C5.9951 11.3462 5.98879 11.3588 5.97932 11.3683C5.26268 12.3027 4.60287 13.2814 3.99989 14.3011C3.99989 14.3043 3.99673 14.3074 3.99358 14.3137C2.58241 16.7099 1.50904 19.3239 0.830285 22.0957C0.631396 22.9133 0.464076 23.7436 0.33464 24.5865C0.113651 26.0261 0 27.5004 0 29.0032C0 29.9092 0.0410407 30.809 0.123122 31.6929C0.287285 33.464 0.609297 35.1908 1.07653 36.8546C1.30699 37.6722 1.57217 38.4741 1.86893 39.2633C1.86893 39.2665 1.86893 39.2697 1.87209 39.2728C1.87524 39.2823 1.8784 39.2949 1.88472 39.3044C2.00468 39.6169 2.13096 39.9231 2.2604 40.2294C2.29197 40.3083 2.32354 40.3872 2.35511 40.463C2.49086 40.7818 2.63923 41.0944 2.78761 41.4069C2.82234 41.4795 2.85391 41.5553 2.88863 41.6279C3.04017 41.9373 3.19802 42.2435 3.35902 42.5466C3.39691 42.6192 3.43163 42.6918 3.46952 42.7644C3.63052 43.0643 3.80416 43.3611 3.97464 43.6547C4.01568 43.7273 4.05672 43.7999 4.09776 43.8725C4.09776 43.8788 4.10407 43.882 4.10723 43.8883C4.27455 44.1661 4.45134 44.4408 4.62497 44.7123C4.67548 44.7912 4.72284 44.8733 4.77335 44.9491C4.77335 44.9522 4.77651 44.9554 4.77966 44.9585C4.95961 45.23 5.14587 45.4921 5.33214 45.7572C5.38896 45.8362 5.43947 45.9151 5.4963 45.994C5.68256 46.2529 5.87829 46.5054 6.07403 46.758C6.13717 46.8401 6.19715 46.9253 6.26029 47.0042C6.52232 47.3326 6.79066 47.6577 7.06532 47.9766C7.23264 48.1692 7.39996 48.3586 7.57043 48.5449C9.28152 50.4169 11.2325 52.0649 13.3793 53.4382C14.882 54.3979 16.4763 55.225 18.1526 55.9006C21.499 57.2518 25.158 57.9937 28.9905 57.9937C32.8231 57.9937 36.4947 57.2455 39.8505 55.888C40.1378 55.7712 40.4219 55.6512 40.7061 55.5249C40.725 55.5155 40.7471 55.5091 40.7661 55.4997C41.1859 55.3134 41.5995 55.1177 42.0068 54.9093C42.073 54.8746 42.1425 54.8399 42.2088 54.8051C42.3382 54.7388 42.4677 54.6757 42.5971 54.6063C42.8686 54.461 43.1369 54.3127 43.4021 54.1611C43.6579 54.0159 43.9104 53.8644 44.1598 53.7097C44.2545 53.6528 44.3461 53.5897 44.4408 53.5329C44.5955 53.435 44.7502 53.3371 44.9049 53.2393C45.0185 53.1667 45.1258 53.0877 45.2363 53.012C45.3689 52.9236 45.5015 52.8352 45.631 52.7436C45.7541 52.6584 45.874 52.57 45.994 52.4816C46.1108 52.3964 46.2276 52.3143 46.3413 52.229C46.4707 52.1312 46.6002 52.0302 46.7296 51.9323C46.8306 51.8534 46.9348 51.7744 47.0358 51.6955C47.1716 51.5882 47.3042 51.4777 47.4368 51.3672C47.5283 51.2914 47.6199 51.2188 47.7114 51.1399C47.8503 51.0231 47.9861 50.9 48.125 50.78C48.2071 50.7074 48.2891 50.6379 48.3712 50.5653C48.5133 50.439 48.6522 50.3096 48.7879 50.1802C48.8637 50.1107 48.9363 50.0413 49.0121 49.9718C49.1573 49.8329 49.2962 49.694 49.4383 49.5551C49.5046 49.4919 49.5709 49.4257 49.634 49.3625C49.7792 49.2141 49.9245 49.0626 50.0665 48.9111C50.1233 48.8511 50.1802 48.7911 50.237 48.7311C50.2591 48.709 50.2812 48.6869 50.3033 48.6617C50.4296 48.5259 50.5495 48.387 50.6727 48.2481C50.7232 48.1913 50.7737 48.1376 50.821 48.0808C50.9694 47.9135 51.1115 47.7398 51.2567 47.5693C51.3009 47.5188 51.3419 47.4683 51.3861 47.4178C51.4114 47.3862 51.4398 47.3578 51.4651 47.3263C51.585 47.1779 51.7018 47.0263 51.8218 46.878C51.8597 46.8306 51.8944 46.7864 51.9323 46.7391C52.0775 46.5496 52.2227 46.3602 52.3616 46.1677C52.3932 46.1266 52.4248 46.0856 52.4532 46.0445C52.5984 45.8456 52.7405 45.6436 52.8794 45.4384C52.9046 45.4037 52.9299 45.3658 52.9552 45.331C53.0972 45.1227 53.2393 44.908 53.375 44.6965C53.394 44.6649 53.4161 44.6365 53.435 44.6049C53.4666 44.5544 53.5013 44.5039 53.5329 44.4534C53.6402 44.2829 53.7412 44.1125 53.8454 43.9388C53.8612 43.9136 53.877 43.8883 53.8928 43.8599C54.0285 43.6294 54.1643 43.399 54.2937 43.1654C54.3063 43.1433 54.319 43.1243 54.3284 43.1022C54.3632 43.0391 54.3979 42.9791 54.4326 42.916C54.5305 42.7392 54.622 42.5592 54.7167 42.3793C54.7262 42.3635 54.7357 42.3445 54.7452 42.3288C54.7799 42.2625 54.8178 42.193 54.8525 42.1267C54.944 41.9468 55.0324 41.7637 55.1177 41.5806C55.124 41.5679 55.1303 41.5553 55.1366 41.5427C55.2597 41.287 55.3797 41.0281 55.4934 40.7692L55.5028 40.7724Z" fill="#7F4B23"/>
</g>
</g>
<defs>
<clipPath id="clip0_631_16">
<rect width="58" height="58" fill="white"/>
</clipPath>
</defs>
</svg>
